<svg width="16" height="20" viewBox="0 0 16 20" fill="none" xmlns="http://www.w3.org/2000/svg">
<g id="&#240;&#159;&#166;&#134; icon &#34;map-pin&#34;">
<path id="Vector" d="M12.0999 10.5775C11.9804 10.5299 11.8527 10.5064 11.7242 10.5082C11.5956 10.51 11.4687 10.5371 11.3506 10.588C11.2325 10.639 11.1256 10.7127 11.036 10.8049C10.9464 10.8972 10.8758 11.0062 10.8282 11.1258C10.7807 11.2454 10.7572 11.3732 10.759 11.5019C10.7608 11.6305 10.7879 11.7576 10.8388 11.8758C10.8896 11.994 10.9633 12.101 11.0554 12.1907C11.1476 12.2804 11.2566 12.3511 11.376 12.3987C12.8041 12.9666 13.6943 13.8478 13.6943 14.6996C13.6943 16.09 11.288 17.637 7.82529 17.637C4.3626 17.637 1.95632 16.09 1.95632 14.6996C1.95632 13.8478 2.84645 12.9666 4.27457 12.3987C4.51583 12.3026 4.70908 12.1145 4.81181 11.8758C4.91454 11.6371 4.91832 11.3673 4.82234 11.1258C4.72635 10.8843 4.53845 10.6909 4.29998 10.588C4.0615 10.4852 3.79199 10.4814 3.55073 10.5775C1.3303 11.4587 0 12.9959 0 14.6996C0 17.4412 3.43335 19.5953 7.82529 19.5953C12.2172 19.5953 15.6506 17.4412 15.6506 14.6996C15.6506 12.9959 14.3203 11.4587 12.0999 10.5775ZM6.84713 7.70866V14.6996C6.84713 14.9593 6.95019 15.2084 7.13363 15.392C7.31707 15.5756 7.56587 15.6788 7.82529 15.6788C8.08472 15.6788 8.33352 15.5756 8.51696 15.392C8.7004 15.2084 8.80345 14.9593 8.80345 14.6996V7.70866C9.72553 7.47034 10.5291 6.90359 11.0636 6.11463C11.5981 5.32567 11.8267 4.36867 11.7068 3.42301C11.5868 2.47736 11.1263 1.60797 10.4118 0.977817C9.69723 0.347661 8.7776 0 7.82529 0C6.87298 0 5.95336 0.347661 5.23881 0.977817C4.52425 1.60797 4.06383 2.47736 3.94383 3.42301C3.82384 4.36867 4.05251 5.32567 4.58699 6.11463C5.12147 6.90359 5.92506 7.47034 6.84713 7.70866ZM7.82529 1.97097C8.21222 1.97097 8.59045 2.08582 8.91217 2.30099C9.23388 2.51617 9.48463 2.82201 9.6327 3.17983C9.78077 3.53766 9.81951 3.9314 9.74402 4.31126C9.66854 4.69112 9.48222 5.04005 9.20862 5.31392C8.93502 5.58779 8.58644 5.77429 8.20695 5.84985C7.82746 5.92541 7.43411 5.88663 7.07664 5.73842C6.71917 5.5902 6.41363 5.3392 6.19867 5.01717C5.98371 4.69514 5.86897 4.31653 5.86897 3.92922C5.86897 3.40986 6.07508 2.91177 6.44196 2.54453C6.80884 2.17728 7.30644 1.97097 7.82529 1.97097Z" fill="black"/>
</g>
</svg>
