<svg width="18" height="19" viewBox="0 0 18 19" fill="none" xmlns="http://www.w3.org/2000/svg">
<g id="&#240;&#159;&#166;&#134; icon &#34;user&#34;">
<path id="Vector" d="M12.3421 9.98171C13.2288 9.26319 13.876 8.27788 14.1937 7.16287C14.5114 6.04786 14.4837 4.85859 14.1146 3.76052C13.7455 2.66244 13.0532 1.71017 12.1341 1.03618C11.215 0.362189 10.1148 0 8.98659 0C7.85834 0 6.75814 0.362189 5.83906 1.03618C4.91997 1.71017 4.22771 2.66244 3.85858 3.76052C3.48945 4.85859 3.4618 6.04786 3.77948 7.16287C4.09717 8.27788 4.74439 9.26319 5.6311 9.98171C4.1117 10.6087 2.78598 11.6485 1.79525 12.9904C0.80453 14.3324 0.185949 15.926 0.00545546 17.6015C-0.0076096 17.7239 0.00284753 17.8477 0.0362296 17.9658C0.0696116 18.084 0.125265 18.1942 0.200012 18.2902C0.35097 18.4842 0.570537 18.6084 0.810411 18.6355C1.05028 18.6627 1.29082 18.5906 1.47909 18.4352C1.66736 18.2797 1.78796 18.0535 1.81434 17.8065C2.01295 15.9855 2.85598 14.3038 4.18238 13.0825C5.50877 11.8613 7.22554 11.1862 9.00467 11.1862C10.7838 11.1862 12.5006 11.8613 13.827 13.0825C15.1534 14.3038 15.9964 15.9855 16.195 17.8065C16.2196 18.0354 16.3256 18.2468 16.4927 18.3999C16.6597 18.553 16.8759 18.6369 17.0994 18.6355H17.1989C17.436 18.6074 17.6527 18.484 17.8018 18.292C17.9509 18.1001 18.0203 17.8553 17.9948 17.6109C17.8135 15.9306 17.1916 14.3328 16.1958 12.9888C15.2 11.6449 13.8678 10.6053 12.3421 9.98171ZM8.98659 9.32033C8.27106 9.32033 7.5716 9.1018 6.97666 8.69237C6.38172 8.28294 5.91802 7.70101 5.6442 7.02016C5.37037 6.3393 5.29873 5.59011 5.43832 4.86732C5.57792 4.14453 5.92248 3.48061 6.42843 2.95951C6.93439 2.4384 7.57901 2.08353 8.28079 1.93976C8.98257 1.79599 9.70999 1.86977 10.371 2.15179C11.0321 2.43381 11.5971 2.91139 11.9947 3.52414C12.3922 4.13689 12.6044 4.8573 12.6044 5.59424C12.6044 6.58246 12.2232 7.53021 11.5447 8.22898C10.8663 8.92776 9.94608 9.32033 8.98659 9.32033Z" fill="black"/>
</g>
</svg>
