<svg width="19" height="21" viewBox="0 0 19 21" fill="none" xmlns="http://www.w3.org/2000/svg">
<g id="&#240;&#159;&#166;&#134; icon &#34;suitcase&#34;">
<path id="Vector" d="M15.7673 4.87727H12.9848V3.82464C12.9848 2.98712 12.6917 2.18389 12.1699 1.59167C11.6481 0.999454 10.9403 0.666748 10.2024 0.666748H8.3474C7.60944 0.666748 6.90171 0.999454 6.3799 1.59167C5.85808 2.18389 5.56493 2.98712 5.56493 3.82464V4.87727H2.78247C2.04451 4.87727 1.33678 5.20998 0.814965 5.8022C0.293152 6.39442 0 7.19764 0 8.03517V17.5089C0 18.3464 0.293152 19.1496 0.814965 19.7418C1.33678 20.334 2.04451 20.6667 2.78247 20.6667H15.7673C16.5053 20.6667 17.213 20.334 17.7348 19.7418C18.2566 19.1496 18.5498 18.3464 18.5498 17.5089V8.03517C18.5498 7.19764 18.2566 6.39442 17.7348 5.8022C17.213 5.20998 16.5053 4.87727 15.7673 4.87727ZM7.41991 3.82464C7.41991 3.54547 7.51763 3.27773 7.69156 3.08032C7.8655 2.88291 8.10141 2.77201 8.3474 2.77201H10.2024C10.4484 2.77201 10.6843 2.88291 10.8582 3.08032C11.0321 3.27773 11.1299 3.54547 11.1299 3.82464V4.87727H7.41991V3.82464ZM16.6948 17.5089C16.6948 17.788 16.5971 18.0558 16.4231 18.2532C16.2492 18.4506 16.0133 18.5615 15.7673 18.5615H2.78247C2.53648 18.5615 2.30057 18.4506 2.12663 18.2532C1.95269 18.0558 1.85498 17.788 1.85498 17.5089V12.1931H4.63744V13.2983C4.63744 13.5775 4.73516 13.8452 4.9091 14.0427C5.08304 14.2401 5.31895 14.351 5.56493 14.351C5.81092 14.351 6.04683 14.2401 6.22077 14.0427C6.3947 13.8452 6.49242 13.5775 6.49242 13.2983V12.1931H12.0574V13.2983C12.0574 13.5775 12.1551 13.8452 12.329 14.0427C12.5029 14.2401 12.7389 14.351 12.9848 14.351C13.2308 14.351 13.4667 14.2401 13.6407 14.0427C13.8146 13.8452 13.9123 13.5775 13.9123 13.2983V12.1931H16.6948V17.5089ZM16.6948 10.1404H1.85498V8.03517C1.85498 7.75599 1.95269 7.48825 2.12663 7.29085C2.30057 7.09344 2.53648 6.98254 2.78247 6.98254H15.7673C16.0133 6.98254 16.2492 7.09344 16.4231 7.29085C16.5971 7.48825 16.6948 7.75599 16.6948 8.03517V10.1404Z" fill="black"/>
</g>
</svg>
