<?xml version="1.0" standalone="no"?>
<!DOCTYPE svg PUBLIC "-//W3C//DTD SVG 20010904//EN"
 "http://www.w3.org/TR/2001/REC-SVG-20010904/DTD/svg10.dtd">
<svg version="1.0" xmlns="http://www.w3.org/2000/svg"
 width="1080.000000pt" height="1080.000000pt" viewBox="0 0 1080.000000 1080.000000"
 preserveAspectRatio="xMidYMid meet">
<metadata>
Created by potrace 1.14, written by Peter Selinger 2001-2017
</metadata>
<g transform="translate(0.000000,1080.000000) scale(0.100000,-0.100000)"
fill="#000000" stroke="none">
<path d="M5440 8005 c-47 -7 -103 -18 -125 -23 -22 -6 -56 -15 -75 -20 -103
-27 -290 -113 -405 -187 -149 -95 -349 -290 -453 -442 -107 -158 -198 -359
-248 -552 -64 -242 -62 -600 3 -841 8 -30 18 -68 23 -85 31 -116 124 -309 217
-450 85 -128 290 -335 418 -422 160 -108 338 -189 500 -227 39 -9 90 -22 115
-29 29 -8 126 -12 270 -12 144 0 241 4 270 12 25 7 77 20 115 29 241 57 497
199 689 384 255 245 410 526 488 880 20 93 23 132 23 345 0 212 -3 252 -23
345 -69 316 -210 589 -421 812 -86 90 -238 223 -274 238 -7 3 -31 18 -55 33
-116 75 -336 166 -477 196 -155 33 -414 40 -575 16z m485 -594 c112 -31 115
-33 188 -68 108 -53 205 -123 294 -215 407 -418 412 -1092 12 -1513 -205 -216
-453 -325 -739 -325 -365 0 -695 193 -885 518 -63 107 -100 207 -136 362 -17
73 -17 297 0 385 30 159 110 347 202 471 103 140 281 279 439 342 14 5 37 14
51 20 34 13 144 40 189 46 84 10 316 -3 385 -23z"/>
<path d="M5876 7148 c-9 -12 -16 -27 -16 -33 0 -22 39 -53 77 -59 61 -12 181
-76 238 -128 54 -49 135 -165 135 -192 0 -8 5 -18 10 -21 6 -3 10 -17 10 -30
0 -13 5 -27 10 -30 6 -3 10 -22 10 -41 0 -74 56 -108 100 -61 15 16 19 29 15
47 -4 14 -9 42 -12 63 -3 20 -9 40 -14 43 -5 3 -9 14 -9 24 0 19 -66 156 -85
176 -5 7 -26 31 -45 55 -63 78 -183 154 -304 193 -69 22 -102 21 -120 -6z"/>
<path d="M4585 4613 c-16 -2 -34 -9 -39 -14 -6 -5 -16 -9 -24 -9 -43 0 -192
-147 -192 -189 0 -6 -4 -11 -10 -11 -5 0 -10 -8 -10 -18 0 -10 -4 -22 -9 -27
-8 -9 -101 -187 -230 -440 -31 -60 -58 -112 -61 -115 -3 -3 -27 -48 -53 -100
-27 -52 -79 -153 -115 -225 l-67 -130 0 -111 c0 -98 3 -116 25 -159 47 -92
118 -145 224 -167 44 -10 65 -8 127 6 99 24 165 70 217 151 33 52 113 204 324
615 18 36 35 67 38 70 3 3 40 75 83 160 43 85 89 173 101 195 37 68 46 108 46
198 0 71 -4 96 -25 141 -31 68 -115 156 -148 156 -7 0 -17 4 -23 10 -11 11
-135 20 -179 13z"/>
</g>
</svg>
